<mxfile host="app.diagrams.net" agent="Mozilla/5.0 (Windows NT 10.0; Win64; x64) AppleWebKit/537.36 (KHTML, like Gecko) Chrome/138.0.0.0 Safari/537.36" version="28.0.6">
  <diagram name="Page-1" id="n2RZ5mwlxZWf3bntqGnY">
    <mxGraphModel dx="1426" dy="743" grid="1" gridSize="9" guides="1" tooltips="1" connect="1" arrows="1" fold="1" page="1" pageScale="1" pageWidth="850" pageHeight="1100" math="0" shadow="0">
      <root>
        <mxCell id="0" />
        <mxCell id="1" parent="0" />
        <mxCell id="QUcfcvzWzWPflJyOP_YL-10" style="edgeStyle=orthogonalEdgeStyle;rounded=0;orthogonalLoop=1;jettySize=auto;html=1;" edge="1" parent="1" source="QUcfcvzWzWPflJyOP_YL-2" target="QUcfcvzWzWPflJyOP_YL-4">
          <mxGeometry relative="1" as="geometry" />
        </mxCell>
        <mxCell id="QUcfcvzWzWPflJyOP_YL-2" value="Spring Boot(Netty) - backend" style="image;sketch=0;aspect=fixed;html=1;points=[];align=center;fontSize=12;image=img/lib/mscae/WebHosting.svg;" vertex="1" parent="1">
          <mxGeometry x="470" y="667.5" width="95" height="95" as="geometry" />
        </mxCell>
        <mxCell id="QUcfcvzWzWPflJyOP_YL-4" value="data.json&lt;div&gt;&lt;br&gt;&lt;/div&gt;" style="dashed=0;outlineConnect=0;html=1;align=center;labelPosition=center;verticalLabelPosition=bottom;verticalAlign=top;shape=mxgraph.webicons.json;gradientColor=#DFDEDE" vertex="1" parent="1">
          <mxGeometry x="639" y="670" width="80" height="90" as="geometry" />
        </mxCell>
        <mxCell id="QUcfcvzWzWPflJyOP_YL-12" style="edgeStyle=orthogonalEdgeStyle;rounded=0;orthogonalLoop=1;jettySize=auto;html=1;entryX=0;entryY=0.5;entryDx=0;entryDy=0;" edge="1" parent="1" source="QUcfcvzWzWPflJyOP_YL-6" target="QUcfcvzWzWPflJyOP_YL-7">
          <mxGeometry relative="1" as="geometry" />
        </mxCell>
        <mxCell id="QUcfcvzWzWPflJyOP_YL-6" value="cliente" style="verticalLabelPosition=bottom;aspect=fixed;html=1;shape=mxgraph.salesforce.web;" vertex="1" parent="1">
          <mxGeometry x="90" y="675" width="101.27" height="80" as="geometry" />
        </mxCell>
        <mxCell id="QUcfcvzWzWPflJyOP_YL-11" style="edgeStyle=orthogonalEdgeStyle;rounded=0;orthogonalLoop=1;jettySize=auto;html=1;" edge="1" parent="1" source="QUcfcvzWzWPflJyOP_YL-7" target="QUcfcvzWzWPflJyOP_YL-2">
          <mxGeometry relative="1" as="geometry">
            <mxPoint x="540" y="720" as="targetPoint" />
          </mxGeometry>
        </mxCell>
        <mxCell id="QUcfcvzWzWPflJyOP_YL-17" style="edgeStyle=orthogonalEdgeStyle;rounded=0;orthogonalLoop=1;jettySize=auto;html=1;" edge="1" parent="1" source="QUcfcvzWzWPflJyOP_YL-7" target="QUcfcvzWzWPflJyOP_YL-14">
          <mxGeometry relative="1" as="geometry" />
        </mxCell>
        <mxCell id="QUcfcvzWzWPflJyOP_YL-7" value="Treafik" style="sketch=0;html=1;verticalAlign=top;labelPosition=center;verticalLabelPosition=bottom;align=center;spacingTop=-6;fontSize=11;fontStyle=1;fontColor=light-dark(#000000, #6a6a6a);shape=image;aspect=fixed;imageAspect=0;image=data:image/svg+xml,PHN2ZyB4bWxucz0iaHR0cDovL3d3dy53My5vcmcvMjAwMC9zdmciIGhlaWdodD0iMzY3LjgxODMyODg1NzQyMTkiIHZpZXdCb3g9IjcuMTA1NDI3MzU3NjAxMDAyZS0xNSAwIDM2Ni40MTAxODY3Njc1NzgxIDM2Ny44MTgzMjg4NTc0MjE5IiBwcmVzZXJ2ZUFzcGVjdFJhdGlvPSJ4TWlkWU1pZCBtZWV0IiB3aWR0aD0iMzY2LjQxMDE5Njc2NzU3OTEiIHZlcnNpb249IjEuMSIgaWQ9InN2Zzk4NyIgem9vbUFuZFBhbj0ibWFnbmlmeSI+JiN4YTsgIDxwYXRoIGQ9Im0gNDguMjUxOTYsMTExLjUzOTA2IGMgLTcuNjE4NjQsMmUtNCAtMTMuNzk0NzIsNi4xNzYyOCAtMTMuNzk0OTMsMTMuNzk0OTIgMi4xZS00LDcuNjE4NjQgNi4xNzYyOSwxMy43OTQ3MiAxMy43OTQ5MywxMy43OTQ5MiBoIDE0NS4xNDY5MiB2IC0yNy41ODk4NCB6IG0gMjM4LjYwODU5LDU3LjQ1MTE3IGggNjUuNzU0NjkgYyA3LjYxODY0LC0yLjFlLTQgMTMuNzk0NzEsLTYuMTc2MjggMTMuNzk0OTIsLTEzLjc5NDkyIC0yLjFlLTQsLTcuNjE4NjQgLTYuMTc2MjgsLTEzLjc5NDcxIC0xMy43OTQ5MiwtMTMuNzk0OTIgSCAyODQuODUwNiBaIE0gMTMuNzk0OTIsMTcwLjk3NDYxIEMgNi4xNzYyODAxLDE3MC45NzQ4MiAyLjEwMDkxOWUtNCwxNzcuMTUwODkgOS4xODk5MjFlLTgsMTg0Ljc2OTUzIC04LjY5OTA4MWUtNCwxOTIuMzg4OTMgNi4xNzU1MjAxLDE5OC41NjYxOSAxMy43OTQ5MiwxOTguNTY2NCBIIDE5My4zOTg4OCBWIDE3MC45NzQ2MSBaIE0gMjg0LjMwNzgsMjI3LjU2NjQgaCA2OC4zMDc0NCBjIDcuNjE4NjQsLTIuMWUtNCAxMy43OTQ3MSwtNi4xNzYyOCAxMy43OTQ5MiwtMTMuNzk0OTIgLTIuMWUtNCwtNy42MTg2NCAtNi4xNzYyOCwtMTMuNzk0NzEgLTEzLjc5NDkyLC0xMy43OTQ5MiBoIC02NS45MjE3OCB6IG0gLTIzNi4wNTU4NCwxLjY5NzI3IGMgLTcuNjE4NjQsMmUtNCAtMTMuNzk0NzIsNi4xNzYyOCAtMTMuNzk0OTMsMTMuNzk0OTIgMi4xZS00LDcuNjE4NjQgNi4xNzYyOSwxMy43OTQ3MiAxMy43OTQ5MywxMy43OTQ5MiBIIDE5My4zOTg4OCBWIDIyOS4yNjM2NyBaIE0gMTg5LjUyMTQ5LDAgYyAtMjQuNTc0MTEsMCAtNDkuMTY3MzcsMjAuMDU1MDcgLTU5LjQzNzUsNzUuMzczMDQgaCAzMC41ODAwNyBjIDQuNjE2MzMsLTI0LjE2MjA2IDE1LjM0ODk2LC00Ny41MjE0OCAyNy44NTM1MiwtNDcuNTIxNDggMTIuMTU4OCwwIDM5LjQ1ODk4LDU3LjQ1MDQ0IDM5LjQ1ODk4LDE2MC40MTQwNiAwLDY5LjkxNTEzIC0xOS41NzgwOSwxNTIuMTE1MjQgLTQxLjE3MTg3LDE1Mi4xMTUyMyAtMTUuMjY4ODEsMmUtNSAtMjEuMjE2NjgsLTI4LjMzMzU2IC0yNS40NDMzNiwtNDYuNzE4NzQgbCAtMzAuNDE0MDYsLTAuMDY4NCBjIDQuMjIwNzQsMjAuNTQwODcgMTYuOTA3NjgsNzQuMjI0NiA1Ny43MTI4OSw3NC4yMjQ2IDUzLjQzNjcyLDAgNjguOTEyMTEsLTExMS45OTMwNSA2OC45MTIxMSwtMTgwLjQ2Mjg5IEMgMjU3LjU3MjI3LDkzLjgwMDc2IDIzNi41ODM0LDAgMTg5LjUyMTQ5LDAgWiIgc3R5bGU9ImNvbG9yOiMwMDAwMDA7b3BhY2l0eToxO2ZpbGw6IzQyODVmNDtmaWxsLW9wYWNpdHk6MTtzdHJva2UtbGluZWNhcDpyb3VuZDstaW5rc2NhcGUtc3Ryb2tlOm5vbmUiLz4mI3hhOzwvc3ZnPg==;" vertex="1" parent="1">
          <mxGeometry x="270" y="677" width="76" height="76" as="geometry" />
        </mxCell>
        <mxCell id="QUcfcvzWzWPflJyOP_YL-8" value="" style="shape=image;html=1;verticalAlign=top;verticalLabelPosition=bottom;labelBackgroundColor=#ffffff;imageAspect=0;aspect=fixed;image=https://icons.diagrams.net/icon-cache1/Social_Media-2000/social_media_social_media_logo_docker-1351.svg" vertex="1" parent="1">
          <mxGeometry x="495" y="468" width="119" height="119" as="geometry" />
        </mxCell>
        <mxCell id="QUcfcvzWzWPflJyOP_YL-14" value="static files(nginx) -frontend&lt;div&gt;&lt;br&gt;&lt;/div&gt;" style="image;aspect=fixed;perimeter=ellipsePerimeter;html=1;align=center;shadow=0;dashed=0;spacingTop=3;image=img/lib/active_directory/web_server.svg;" vertex="1" parent="1">
          <mxGeometry x="263" y="430" width="90" height="112.5" as="geometry" />
        </mxCell>
        <mxCell id="QUcfcvzWzWPflJyOP_YL-20" value="" style="rounded=0;whiteSpace=wrap;html=1;fillColor=none;" vertex="1" parent="1">
          <mxGeometry x="72" y="403" width="702" height="407" as="geometry" />
        </mxCell>
        <mxCell id="QUcfcvzWzWPflJyOP_YL-23" value="Grafana(visualizar)" style="image;aspect=fixed;html=1;points=[];align=center;fontSize=12;image=img/lib/azure2/other/Grafana.svg;" vertex="1" parent="1">
          <mxGeometry x="451.55" y="952.8" width="64.91" height="50.4" as="geometry" />
        </mxCell>
        <mxCell id="QUcfcvzWzWPflJyOP_YL-32" style="edgeStyle=orthogonalEdgeStyle;rounded=0;orthogonalLoop=1;jettySize=auto;html=1;" edge="1" parent="1" source="QUcfcvzWzWPflJyOP_YL-23" target="QUcfcvzWzWPflJyOP_YL-25">
          <mxGeometry relative="1" as="geometry" />
        </mxCell>
        <mxCell id="QUcfcvzWzWPflJyOP_YL-24" value="&lt;div&gt;&lt;/div&gt;" style="points=[];aspect=fixed;html=1;align=center;shadow=0;dashed=0;fillColor=#FF6A00;strokeColor=none;shape=mxgraph.alibaba_cloud.prometheus;" vertex="1" parent="1">
          <mxGeometry x="444.23" y="837" width="72.23" height="72.23" as="geometry" />
        </mxCell>
        <mxCell id="QUcfcvzWzWPflJyOP_YL-25" value="Loki(logs)&lt;div&gt;&lt;br&gt;&lt;/div&gt;" style="sketch=0;outlineConnect=0;fontColor=#232F3E;gradientColor=none;fillColor=#232F3D;strokeColor=none;dashed=0;verticalLabelPosition=bottom;verticalAlign=top;align=center;html=1;fontSize=12;fontStyle=0;aspect=fixed;pointerEvents=1;shape=mxgraph.aws4.logs;" vertex="1" parent="1">
          <mxGeometry x="315" y="939" width="57" height="78" as="geometry" />
        </mxCell>
        <mxCell id="QUcfcvzWzWPflJyOP_YL-30" style="edgeStyle=orthogonalEdgeStyle;rounded=0;orthogonalLoop=1;jettySize=auto;html=1;" edge="1" parent="1" source="QUcfcvzWzWPflJyOP_YL-28" target="QUcfcvzWzWPflJyOP_YL-25">
          <mxGeometry relative="1" as="geometry" />
        </mxCell>
        <mxCell id="QUcfcvzWzWPflJyOP_YL-42" style="edgeStyle=orthogonalEdgeStyle;rounded=0;orthogonalLoop=1;jettySize=auto;html=1;" edge="1" parent="1" source="QUcfcvzWzWPflJyOP_YL-28" target="QUcfcvzWzWPflJyOP_YL-20">
          <mxGeometry relative="1" as="geometry">
            <mxPoint x="219.76999999999998" y="819" as="targetPoint" />
          </mxGeometry>
        </mxCell>
        <mxCell id="QUcfcvzWzWPflJyOP_YL-28" value="Promptail(logs)" style="sketch=0;outlineConnect=0;fontColor=#232F3E;gradientColor=none;fillColor=#E7157B;strokeColor=none;dashed=0;verticalLabelPosition=bottom;verticalAlign=top;align=center;html=1;fontSize=12;fontStyle=0;aspect=fixed;pointerEvents=1;shape=mxgraph.aws4.logs;" vertex="1" parent="1">
          <mxGeometry x="191.26999999999998" y="938.4500000000002" width="57" height="78" as="geometry" />
        </mxCell>
        <mxCell id="QUcfcvzWzWPflJyOP_YL-43" style="edgeStyle=orthogonalEdgeStyle;rounded=0;orthogonalLoop=1;jettySize=auto;html=1;entryX=0.551;entryY=0.924;entryDx=0;entryDy=0;entryPerimeter=0;" edge="1" parent="1" source="QUcfcvzWzWPflJyOP_YL-23" target="QUcfcvzWzWPflJyOP_YL-24">
          <mxGeometry relative="1" as="geometry" />
        </mxCell>
        <mxCell id="QUcfcvzWzWPflJyOP_YL-44" style="edgeStyle=orthogonalEdgeStyle;rounded=0;orthogonalLoop=1;jettySize=auto;html=1;entryX=0.581;entryY=0.99;entryDx=0;entryDy=0;entryPerimeter=0;" edge="1" parent="1" source="QUcfcvzWzWPflJyOP_YL-24" target="QUcfcvzWzWPflJyOP_YL-20">
          <mxGeometry relative="1" as="geometry" />
        </mxCell>
        <mxCell id="QUcfcvzWzWPflJyOP_YL-45" value="Text" style="text;strokeColor=none;align=center;fillColor=none;html=1;verticalAlign=middle;whiteSpace=wrap;rounded=0;" vertex="1" parent="1">
          <mxGeometry x="396" y="675" width="60" height="30" as="geometry" />
        </mxCell>
        <mxCell id="QUcfcvzWzWPflJyOP_YL-46" value="Prometheus(metricas)" style="text;html=1;align=center;verticalAlign=middle;whiteSpace=wrap;rounded=0;" vertex="1" parent="1">
          <mxGeometry x="505" y="909" width="60" height="30" as="geometry" />
        </mxCell>
        <mxCell id="QUcfcvzWzWPflJyOP_YL-47" value="Contenedores red meli-network" style="text;html=1;align=center;verticalAlign=middle;whiteSpace=wrap;rounded=0;fontStyle=1;fontSize=16;" vertex="1" parent="1">
          <mxGeometry x="504" y="414" width="244" height="36" as="geometry" />
        </mxCell>
      </root>
    </mxGraphModel>
  </diagram>
</mxfile>
